<svg width="180" height="50" viewBox="0 0 144 40" fill="none" xmlns="http://www.w3.org/2000/svg">
  <defs>
    <linearGradient id="walletBody" x1="4" y1="6" x2="28" y2="26" gradientUnits="userSpaceOnUse">
      <stop stop-color="#4F46E5" offset="0%" />
      <stop stop-color="#3730A3" offset="100%" />
    </linearGradient>
    <linearGradient id="walletFlap" x1="4" y1="10" x2="28" y2="10" gradientUnits="userSpaceOnUse">
      <stop stop-color="#818CF8" offset="0%" />
      <stop stop-color="#4F46E5" offset="100%" />
    </linearGradient>
    <radialGradient id="coinShine" cx="0" cy="0" r="1" gradientUnits="userSpaceOnUse" gradientTransform="translate(16 16) rotate(90) scale(4)">
      <stop stop-color="#FCD34D" offset="0%" />
      <stop stop-color="#F59E0B" offset="100%" />
    </radialGradient>

    <style>
      /* Default Color (Light Mode): Dark Slate */
      .hisaab-text { fill: #1E293B; }
      
      /* Dark Mode Color: Soft White (The one you asked for) */
      @media (prefers-color-scheme: dark) {
        .hisaab-text { fill: #CBD5E1; }
      }
    </style>
  </defs>

  <g transform="translate(0, 4)">
    <ellipse cx="16" cy="27" rx="12" ry="3" fill="#312E81" fill-opacity="0.2" />
    <path d="M4 10C4 7.79 5.79 6 8 6H24C26.21 6 28 7.79 28 10V22C28 24.21 26.21 26 24 26H8C5.79 26 4 24.21 4 22V10Z" transform="translate(0, 2)" fill="#3730A3" />
    <path d="M4 10C4 7.79 5.79 6 8 6H24C26.21 6 28 7.79 28 10V22C28 24.21 26.21 26 24 26H8C5.79 26 4 24.21 4 22V10Z" fill="url(#walletBody)" />
    <path d="M4 10C4 7.79 5.79 6 8 6H24C26.21 6 28 7.79 28 10V15C28 17.21 26.21 19 24 19H8C5.79 19 4 17.21 4 15V10Z" fill="url(#walletFlap)" />
    <circle cx="16" cy="17" r="4.5" fill="#D97706" />
    <circle cx="16" cy="16" r="4" fill="url(#coinShine)" />
    <ellipse cx="15" cy="14.5" rx="1.5" ry="1" fill="white" fill-opacity="0.5" />
  </g>

  <text x="36" y="26" font-family="Arial, sans-serif" font-weight="bold" font-size="20" class="hisaab-text">
    Hisaab<tspan fill="#4F46E5">Se</tspan>
  </text>
</svg>